<svg width="1149" height="729" viewBox="0 0 1149 729" fill="none" xmlns="http://www.w3.org/2000/svg">
<g clip-path="url(#clip0_4007_80)">
<path d="M682.65 0.0297852H658.85V213.29H682.65V0.0297852Z" fill="#B27E54"></path>
<path d="M511.85 213.29H535.65V155.49H535.71C535.71 135.04 552.34 118.39 572.75 118.39C593.17 118.39 609.79 135.05 609.79 155.49H609.85V213.07H633.65V47.31H609.85V107.15C602.55 101.51 593.97 97.51 584.64 95.63V0H560.84V95.63C551.48 97.48 542.9 101.52 535.63 107.15V47.53H511.83V146.16V213.26V213.29H511.85Z" fill="#B27E54"></path>
<path d="M486.65 0.0297852H462.85V213.29H486.65V0.0297852Z" fill="#B27E54"></path>
<path d="M190.41 442.65C190.41 475.21 159.51 497.85 100.98 497.85C59.21 497.85 25.24 486.05 0 464.6L21.7 438.89C41.99 457.52 68.17 466.26 101.92 466.26C135.67 466.26 152.39 459.87 152.39 446.19C152.39 432.51 135.42 428.72 97.41 425.43C50.22 421.42 6.36 411.03 6.36 375.64C6.36 340.26 43.15 322.32 94.13 322.32C130.23 322.32 161.36 331.28 182.37 347.56L161.61 373.74C143.45 359.81 121.03 354.17 94.13 353.92C71.71 353.67 44.34 357.71 44.34 372.8C44.34 386.95 67.95 388.36 100.73 390.96C153.33 395.22 190.38 406.3 190.38 442.62L190.41 442.65Z" fill="#B27E54"></path>
<path d="M264.68 327.52H226.92V492.66H264.68V327.52Z" fill="#B27E54"></path>
<path d="M498.91 459.15C482.41 481.57 449.84 497.85 405.01 497.85C338.72 497.85 298.36 465.29 298.36 410.08C298.36 354.87 338.69 322.31 405.01 322.31C445.59 322.31 474.37 337.65 490.9 353.68L461.4 375.16C447 361.01 430.24 354.4 405.26 354.4C362.08 354.4 336.84 373.28 336.84 410.07C336.84 446.86 362.8 465.74 406.66 465.74C431.43 465.74 451.72 460.32 463.52 446.17V430.14H401.24V399.45H498.9V459.15H498.91Z" fill="#B27E54"></path>
<path d="M724.61 327.52V492.66H691.58L573.13 373.27V492.66H536.55V327.52H576.66L688.01 440.77V327.52H724.58H724.61Z" fill="#B27E54"></path>
<path d="M935.53 461.06V492.69H765.41V327.55H933.15V359.18H802.92V393.15H911.7V424.77H802.92V461.09H935.53V461.06Z" fill="#B27E54"></path>
<path d="M1148.64 360.08H1076.43V492.69H1038.67V360.08H966.94V327.52H1148.61V360.08H1148.64Z" fill="#B27E54"></path>
<path d="M301.19 679.4C301.19 662.65 288.7 659.58 267.47 659.58H189.63V699.22H267.47C288.7 699.22 301.19 695.93 301.19 679.4ZM189.6 630.8H259.68C280.22 630.8 292.93 627.51 292.93 612.17C292.93 596.83 280.19 593.54 259.68 593.54H189.6V630.83V630.8ZM339.89 683.66C339.89 712.91 314.87 728.97 275.23 728.97H152.31V563.83H265.78C305.42 563.83 330.41 579.39 330.41 606.07C330.41 624.95 318.14 640.98 293.62 642.64C319.58 644.05 339.87 657.51 339.87 683.69L339.89 683.66Z" fill="#B27E54"></path>
<path d="M496.76 663.4L462.54 596.17L428.32 663.4H496.74H496.76ZM512.57 694.05H412.78L395.09 728.96H354.76L442.28 563.82H483.58L571.1 728.96H530.27L512.57 694.05Z" fill="#B27E54"></path>
<path d="M783.01 563.8V728.93H749.98L631.56 609.54V728.93H594.98V563.8H635.09L746.44 677.05V563.8H783.01Z" fill="#B27E54"></path>
<path d="M968.44 728.96L904.75 651.34L861.57 687.92V728.96H823.81V563.83H861.57V647.59L959.7 563.83H1009.23L932.33 628.96L1013.74 729H968.44V728.96Z" fill="#B27E54"></path>
</g>
<defs>
<clipPath id="clip0_4007_80">
<rect width="1148.64" height="729" fill="white"></rect>
</clipPath>
</defs>
</svg>